<svg width="24" height="24" viewBox="0 0 24 24" fill="none" xmlns="http://www.w3.org/2000/svg">
<path fill-rule="evenodd" clip-rule="evenodd" d="M12.0001 4.1501C7.66466 4.1501 4.1501 7.66466 4.1501 12.0001C4.1501 16.3355 7.66466 19.8501 12.0001 19.8501C13.3614 19.8501 14.6392 19.5044 15.7533 18.8966C15.9574 18.7853 16.1968 18.7572 16.4211 18.8184L18.5355 19.3951C18.9953 19.5205 19.2802 19.5972 19.4893 19.6341C19.5636 19.6473 19.6107 19.6517 19.6371 19.6531C19.643 19.6484 19.6484 19.643 19.6531 19.6371C19.6517 19.6107 19.6473 19.5636 19.6341 19.4893C19.5972 19.2802 19.5205 18.9953 19.3951 18.5356L18.8184 16.4211C18.7572 16.1968 18.7852 15.9575 18.8966 15.7533C19.5043 14.6392 19.8501 13.3614 19.8501 12.0001C19.8501 7.66466 16.3355 4.1501 12.0001 4.1501ZM2.3501 12.0001C2.3501 6.67055 6.67055 2.3501 12.0001 2.3501C17.3296 2.3501 21.6501 6.67055 21.6501 12.0001C21.6501 13.5384 21.2895 14.9948 20.6476 16.2873L21.142 18.0998C21.2538 18.5099 21.3536 18.8758 21.4067 19.1763C21.4605 19.4809 21.4971 19.867 21.3499 20.2526C21.157 20.7579 20.7579 21.157 20.2526 21.3499C19.8669 21.4971 19.4809 21.4605 19.1763 21.4067C18.8758 21.3537 18.5099 21.2539 18.0998 21.142L16.2872 20.6476C14.9948 21.2895 13.5384 21.6501 12.0001 21.6501C6.67055 21.6501 2.3501 17.3296 2.3501 12.0001Z" fill="#282119"/>
</svg>
