<svg width="23" height="19" viewBox="0 0 23 19" fill="none" xmlns="http://www.w3.org/2000/svg">
<path fill-rule="evenodd" clip-rule="evenodd" d="M9.00004 2C7.06705 2 5.50004 3.567 5.50004 5.5C5.50004 7.433 7.06705 9 9.00004 9C10.933 9 12.5 7.433 12.5 5.5C12.5 3.567 10.933 2 9.00004 2ZM3.50004 5.5C3.50004 2.46243 5.96248 0 9.00004 0C12.0376 0 14.5 2.46243 14.5 5.5C14.5 8.53757 12.0376 11 9.00004 11C5.96248 11 3.50004 8.53757 3.50004 5.5ZM14.6045 1.02273C14.8503 0.528148 15.4505 0.326461 15.9451 0.572245C17.7536 1.47103 19 3.33904 19 5.5C19 7.66096 17.7536 9.52897 15.9451 10.4278C15.4505 10.6735 14.8503 10.4719 14.6045 9.97727C14.3587 9.48269 14.5604 8.88251 15.055 8.63673C16.2099 8.0628 17 6.87276 17 5.5C17 4.12724 16.2099 2.9372 15.055 2.36327C14.5604 2.11749 14.3587 1.51731 14.6045 1.02273ZM9.00004 15C6.46128 15 4.08757 16.3253 2.28637 18.6178C1.94516 19.0521 1.31651 19.1275 0.882232 18.7863C0.447955 18.4451 0.372508 17.8165 0.713716 17.3822C2.8055 14.7198 5.71717 13 9.00004 13C12.2829 13 15.1946 14.7198 17.2864 17.3822C17.6276 17.8165 17.5521 18.4451 17.1179 18.7863C16.6836 19.1275 16.0549 19.0521 15.7137 18.6178C13.9125 16.3253 11.5388 15 9.00004 15ZM16.589 14.3541C16.8167 13.851 17.4091 13.6276 17.9123 13.8553C19.5902 14.6146 21.0741 15.8393 22.2864 17.3822C22.6276 17.8165 22.5521 18.4451 22.1179 18.7863C21.6836 19.1275 21.0549 19.0521 20.7137 18.6178C19.671 17.2907 18.4328 16.2861 17.0878 15.6775C16.5846 15.4498 16.3613 14.8573 16.589 14.3541Z" fill="black"/>
</svg>
